<svg xmlns="http://www.w3.org/2000/svg" xmlns:xlink="http://www.w3.org/1999/xlink" fill="none" version="1.1" width="120.0341796875" height="120.199951171875" viewBox="0 0 120.0341796875 120.199951171875"><g><g><path d="M84.7984222265625,67.57001892089843C81.1389122265625,67.57001892089843,78.3892822265625,64.82000892089843,78.3892822265625,61.31000892089844C78.3892822265625,57.80001892089844,81.1389122265625,54.91001892089844,84.7984222265625,54.91001892089844C88.4579822265625,54.91001892089844,91.0475822265625,57.81000892089844,91.0475822265625,61.31000892089844C91.0475822265625,64.81000892089844,88.1479822265625,67.57001892089843,84.7984222265625,67.57001892089843Z" fill="#BE1B27" fill-opacity="1"/></g><g><path d="M59.94199541015625,13.27C71.68049541015625,13.27,82.66899541015626,16.47,91.96779541015626,21.96L103.10619541015625,13.27C90.74769541015625,4.88,75.95989541015625,0,59.94199541015625,0C43.92419541015625,0,29.13609541015625,4.88,16.92779541015625,13.27L27.90629541015625,21.96C37.364995410156254,16.47,48.34349541015625,13.27,59.93199541015625,13.27" fill="#FFFFFF" fill-opacity="1"/></g><g><path d="M27.91606103515625,98.38999938964844L16.93756103515625,106.92998938964844C29.13586103515625,115.31999938964844,44.08396103515625,120.19999938964844,59.94176103515625,120.19999938964844C75.79966103515625,120.19999938964844,90.74776103515624,115.31999938964844,103.10606103515624,106.92998938964844L91.96756103515625,98.38999938964844C82.66876103515625,103.88000938964844,71.68016103515626,106.92998938964844,59.94176103515625,106.92998938964844C48.20336103515625,106.92998938964844,37.36486103515625,103.87998938964844,27.91606103515625,98.38999938964844Z" fill="#FFFFFF" fill-opacity="1"/></g><g><path d="M13.1182,60.100011596679686C13.1182,48.51001159667969,16.3178,37.52001159667969,21.817,28.070011596679688L13.1182,17.090011596679688C4.87935,29.290011596679687,0,44.09001159667969,0,60.11001159667969C0,76.13001159667968,4.87935,90.92001159667969,13.1182,103.28001159667969L21.817,92.14001159667968C16.3278,82.68001159667969,13.1182,71.85001159667968,13.1182,60.11001159667969" fill="#FFFFFF" fill-opacity="1"/></g><g><path d="M98.22662353515625,92.13000732421875L106.76551353515624,103.26000732421875C115.15442353515625,90.91000732421875,120.03372353515624,76.11000732421874,120.03372353515624,60.09000732421875C120.03372353515624,44.07000732421875,115.15442353515625,29.28000732421875,106.76551353515624,17.07000732421875L98.22662353515625,28.05000732421875C103.71587353515625,37.51000732421875,106.76551353515624,48.49000732421875,106.76551353515624,60.08000732421875C106.76551353515624,71.67000732421874,103.71587353515625,82.66000732421875,98.22662353515625,92.11000732421876" fill="#FFFFFF" fill-opacity="1"/></g><g><path d="M40.57430869140625,88.92987487792968C34.47510869140625,88.92987487792968,29.13587869140625,87.24987487792968,24.40641269140625,83.73987487792968L24.25640869140625,83.73987487792968L24.25640869140625,71.98987487792968L25.01631669140625,72.74987487792968C26.23611869140625,74.42987487792968,31.41547869140625,79.60987487792968,39.80440869140625,79.60987487792968C46.21350869140625,79.60987487792968,46.82340869140625,74.8798748779297,46.82340869140625,72.74987487792968C46.82340869140625,68.6298748779297,42.55400869140625,66.33987487792969,37.82460869140625,64.05987487792969L37.52460869140625,63.90987487792969C31.26547869140625,60.859874877929684,24.25640869140625,57.499874877929685,24.25640869140625,48.499874877929685C24.25640869140625,40.25987487792969,31.11546869140625,34.159881877929685,40.57420869140625,33.69987487792969L41.79400869140625,33.69987487792969C50.032808691406245,33.69987487792969,54.15230869140625,36.749874877929685,54.91220869140625,37.359874877929684L55.062208691406255,37.50987487792969L55.062208691406255,47.57987487792969L54.30230869140625,46.96987487792968C51.40270869140625,44.37987487792969,46.67330869140625,42.84986487792969,42.25390869140625,42.84986487792969C40.26410869140625,42.84986487792969,38.44430869140625,43.159864877929685,37.22450869140625,43.75987487792969C35.24480869140625,44.669874877929686,34.32490869140625,46.19987487792969,34.32490869140625,48.48987487792969C34.32490869140625,51.23987487792969,37.68440869140625,52.90987487792969,41.803808691406246,55.04987487792969L42.56380869140625,55.359874877929684C47.90300869140625,58.25987487792969,57.05180869140625,62.82987487792968,57.05180869140625,73.20987487792968C57.05180869140625,77.6298748779297,55.22210869140625,82.20987487792968,52.32250869140625,84.79987487792968C49.422808691406246,87.38987487792969,45.15340869140625,88.91987487792969,40.584008691406254,88.91987487792969" fill="#FFFFFF" fill-opacity="1"/></g><g><path d="M73.05996962890625,89.23000518798828L62.84136962890625,89.23000518798828L62.84136962890625,37.22000518798828L63.15138662890625,37.07000518798828C63.46140362890625,36.920015187988284,72.00016962890625,33.56000518798828,80.99896962890625,33.56000518798828Q90.75766962890626,33.56000518798828,95.63696962890626,37.22000518798828L95.78706962890625,37.36999518798828L95.78706962890625,47.440005187988284L95.17716962890626,46.98000518798828C94.26716962890625,46.37000518798828,89.98786962890625,43.31999518798828,82.05886962890625,43.16999518798828L81.59896962890625,43.16999518798828C77.47956962890625,43.16999518798828,74.57986962890625,44.08000518798828,73.21006962890625,44.540005187988285L73.06006962890625,44.690005187988284L73.05996962890625,89.23000518798828Z" fill="#FFFFFF" fill-opacity="1"/></g></g></svg>