<svg width="18" height="18" viewBox="0 0 18 18" fill="none" xmlns="http://www.w3.org/2000/svg">
<path fill-rule="evenodd" clip-rule="evenodd" d="M8.85022 0.337502C11.812 0.337502 14.2127 2.73825 14.2127 5.7V8.175C15.5796 8.175 16.6877 9.2831 16.6877 10.65V15.1875C16.6877 16.5544 15.5796 17.6625 14.2127 17.6625H3.4877C2.12079 17.6625 1.0127 16.5544 1.0127 15.1875V10.65C1.0127 9.2831 2.12079 8.175 3.4877 8.175V5.7C3.4877 2.73825 5.88845 0.337502 8.8502 0.337502H8.85022ZM9.51022 11.475H8.60272C8.51159 11.475 8.43772 11.5489 8.43772 11.64V13.785C8.43772 13.8758 8.51197 13.95 8.60272 13.95H9.51022C9.60134 13.95 9.67522 13.8761 9.67522 13.785V11.64C9.67522 11.5489 9.60134 11.475 9.51022 11.475ZM4.72686 5.58451C4.78791 3.35989 6.61034 1.575 8.85022 1.575H8.85022L8.96572 1.57665C11.1903 1.6377 12.9752 3.46013 12.9752 5.70001V8.17501H4.72521V5.70001L4.72686 5.58451Z" fill="#999999"/>
</svg>
