<svg width="18" height="18" viewBox="0 0 18 18" fill="none" xmlns="http://www.w3.org/2000/svg">
<path d="M8.62465 0C11.1512 0 13.1993 2.0147 13.1993 4.49952C13.1993 6.98498 11.1512 8.99968 8.62465 8.99968C6.09808 8.99968 4.04999 6.98498 4.04999 4.49952C4.04999 2.01406 6.09873 0 8.62465 0ZM8.62465 0C11.1512 0 13.1993 2.0147 13.1993 4.49952C13.1993 6.98498 11.1512 8.99968 8.62465 8.99968C6.09808 8.99968 4.04999 6.98498 4.04999 4.49952C4.04999 2.01406 6.09873 0 8.62465 0ZM6.90923 10.4999H10.7222C13.986 10.4999 16.6314 13.1017 16.6314 16.3122V16.6866C16.6314 17.9518 13.9854 18 10.7222 18H6.90923C3.64538 18 1 17.9981 1 16.6866V16.3122C1 13.1017 3.64538 10.4999 6.90923 10.4999Z" fill="#999999"/>
</svg>
